<?xml version="1.0" standalone="no"?><!DOCTYPE svg PUBLIC "-//W3C//DTD SVG 1.1//EN" "http://www.w3.org/Graphics/SVG/1.1/DTD/svg11.dtd"><svg class="icon" width="200px" height="200.00px" viewBox="0 0 1024 1024" version="1.1" xmlns="http://www.w3.org/2000/svg"><path fill="#8a8a8a" d="M295.8 674a4 4 0 0 0 5.6 0l143.4-143.5 98.2 98.2 45.3 45.3a4 4 0 0 0 5.6 0l45.3-45.3 256.6-256.6a4 4 0 0 0 0-5.6l-45.3-45.3a4 4 0 0 0-5.7 0L591.1 575 447.7 431.5a4.2 4.2 0 0 0-5.7 0l-45.2 45.3L250.5 623a4 4 0 0 0 0 5.7zM892 824H200V132a4 4 0 0 0-4-4h-64a4 4 0 0 0-4 4v760a4 4 0 0 0 4 4h760a4 4 0 0 0 4-4v-64a4 4 0 0 0-4-4z" /></svg>