<?xml version="1.0" standalone="no"?><!DOCTYPE svg PUBLIC "-//W3C//DTD SVG 1.1//EN" "http://www.w3.org/Graphics/SVG/1.1/DTD/svg11.dtd"><svg class="icon" width="200px" height="200.00px" viewBox="0 0 1024 1024" version="1.1" xmlns="http://www.w3.org/2000/svg"><path fill="#1296db" d="M64 204v616c0 46.4 37.6 84 84 84h728c46.4 0 84-37.6 84-84V204c0-46.4-37.6-84-84-84H148C101.6 120 64 157.6 64 204z m826 392H409.4v-168H890v168z m0 70v147c0 11.6-9.4 21-21 21H409.4v-168H890zM134 428h205.4v168H134v-168z m275.4-70V190h459.6c11.6 0 21 9.4 21 21V358H409.4z m-70-168v168H134v-147C134 199.4 143.4 190 155 190h184.4zM134 666h205.4v168H155c-11.6 0-21-9.4-21-21V666z" /></svg>